<svg width="200" height="200" viewBox="-100 -100 200 200" version="1.1" id="svg1" xmlns="http://www.w3.org/2000/svg">
	<defs>
		<clipPath id="compass-clip">
			<path id="compass-star" transform="translate(-50,-50)" d="M29.1,29.2l6.4,11.6l4.3-0.8l0.8-4.3L29.1,29.2z M40.7,64.5l-0.8-4.3l-4.3-0.8L29.2,71L40.7,64.5z M70.9,70.9l-6.4-11.6l-4.3,0.8l-0.8,4.3L70.9,70.9z M64.4,40.8l6.4-11.6l-11.6,6.4l0.8,4.3L64.4,40.8z M67.4,58.8l10.8,19.4L58.8,67.4L50,98.8l-8.8-31.4L21.9,78.2l10.8-19.4L1.2,50.1l31.4-8.8L21.9,21.9l19.4,10.8L50,1.3l8.8,31.4l19.4-10.8L67.4,41.3L98.8,50L67.4,58.8zM57.7,57.8L83.5,50L50,50.1l7.7-7.7L50,16.6v33.5l-7.7-7.7l-25.8,7.7H50l-7.7,7.7L50,83.5V50.1L57.7,57.8z"/>
		</clipPath>
		<mask id="gear-mask">
			<!-- https://commons.wikimedia.org/wiki/File:Gears.svg -->
			<path id="gear-outer" transform="rotate(15) scale(2)" d="m 31.493,-4.625 4.02,-0.59 2.357,0.229 6.65,3.01 0,3.952 -6.65,3.01 -2.357,0.229 -4.02,-0.59 -1.907,7.117 3.776,1.498 1.928,1.377 4.253,5.932 -1.976,3.422 -7.263,-0.718 -2.157,-0.98 -3.185,-2.521 -5.21,5.21 2.521,3.185 0.98,2.157 0.718,7.263 -3.422,1.976 -5.932,-4.253 -1.377,-1.928 -1.498,-3.776 -7.117,1.907 0.59,4.02 -0.229,2.357 -3.01,6.65 -3.952,0 -3.01,-6.65 -0.229,-2.357 0.59,-4.02 -7.117,-1.907 -1.498,3.776 -1.377,1.928 -5.932,4.253 -3.422,-1.976 0.718,-7.263 0.98,-2.157 2.521,-3.185 -5.21,-5.21 -3.185,2.521 -2.157,0.98 -7.263,0.718 -1.976,-3.422 4.253,-5.932 1.928,-1.377 3.776,-1.498 -1.907,-7.117 -4.02,0.59 -2.357,-0.229 -6.65,-3.01 0,-3.952 6.65,-3.01 2.357,-0.229 4.02,0.59 1.907,-7.117 -3.776,-1.498 -1.928,-1.377 -4.253,-5.932 1.976,-3.422 7.263,0.718 2.157,0.98 3.185,2.521 5.21,-5.21 -2.521,-3.185 -0.98,-2.157 -0.718,-7.263 3.422,-1.976 5.932,4.253 1.377,1.928 1.498,3.776 7.117,-1.907 -0.59,-4.02 0.229,-2.357 3.01,-6.65 3.952,0 3.01,6.65 0.229,2.357 -0.59,4.02 7.117,1.907 1.498,-3.776 1.377,-1.928 5.932,-4.253 3.422,1.976 -0.718,7.263 -0.98,2.157 -2.521,3.185 5.21,5.21 3.185,-2.521 2.157,-0.98 7.263,-0.718 1.976,3.422 -4.253,5.932 -1.928,1.377 -3.776,1.498 z" fill="#fff"/>
			<circle id="gear-inner" cx="0" cy="0" r="50"/>
		</mask>
	</defs>
	<rect x="-100" y="-100" width="200" height="200" />
	<g id="gear" mask="url(#gear-mask)">
		<path id="wedge-2" d="M0,0 86.60254,-60 86.60254,60 Z" fill="#FF8D00" />
		<path id="wedge-4" d="M0,0 10,110 -90,50 Z" fill="#028121" />
		<path id="wedge-6" d="M0,0 -90,-50 10,-110Z" fill="#770088" />
		<path id="wedge-1" d="M0,0 0,-100 86.60254,-50 z" fill="#E50000" />
		<path id="wedge-3" d="M0,0 86.60254,50 0,100 z" fill="#FE0" />
		<path id="wedge-5" d="M0,0 -86.60254,50 -86.60254,-50 Z" fill="#004CFF" />
	</g>
	<g id="compass-trans" clip-path="url(#compass-clip)">
		<rect fill="#5BCEFA" id="trans-blue" width="20" height="100" x="-10" y="-50"/>
		<rect fill="#F5A9B8" id="trans-pink" width="60" height="60" x="-30" y="-30"/>
		<rect fill="#FFF" id="trans-white" width="100" height="20" x="-50" y="-10" />
	</g>
</svg>
