<?xml version="1.0" encoding="UTF-8" standalone="no"?>
<!-- Created with Inkscape. All glory to @tetraspace, @dawnlightmelody @kalamandrens. converted to svg by @girllich -->

<svg
   width="719.96191mm"
   height="428.09583mm"
   viewBox="0 0 719.96191 428.09583"
   version="1.1"
   id="svg1"
   xml:space="preserve"
   xmlns="http://www.w3.org/2000/svg"
   xmlns:svg="http://www.w3.org/2000/svg"><defs
     id="defs1" /><g
     id="layer1"
     transform="translate(283.96402,75.076988)"><rect
       style="fill:#000000;fill-opacity:1;stroke:none;stroke-width:0.264999;stroke-miterlimit:4;stroke-dasharray:none;stroke-opacity:1"
       id="rect67"
       width="719.96191"
       height="427.83075"
       x="-283.96402"
       y="-75.074562"
       ry="0.55683321" /><rect
       style="fill:#5accf8;fill-opacity:1;stroke:none;stroke-width:0.264999;stroke-miterlimit:4;stroke-dasharray:none;stroke-opacity:1"
       id="rect58"
       width="56.861702"
       height="248.32574"
       x="45.97802"
       y="14.215426"
       ry="0.55683321" /><rect
       style="fill:#f3a8b7;fill-opacity:1;stroke:none;stroke-width:0.39038;stroke-miterlimit:4;stroke-dasharray:none;stroke-opacity:1"
       id="rect56"
       width="176.13803"
       height="146.37447"
       x="-14.881774"
       y="65.96846"
       ry="0.55683327" /><rect
       style="fill:#ffffff;fill-opacity:1;stroke:none;stroke-width:0.24171;stroke-miterlimit:4;stroke-dasharray:none;stroke-opacity:1"
       id="rect57"
       width="260.09787"
       height="52.489067"
       x="-49.753994"
       y="112.18551"
       ry="0.17943028" /><path
       style="fill:#fdeb00"
       d="m 107.95637,333.73397 c -4.31684,-11.13358 -8.665073,-22.2552 -13.037896,-33.36722 -4.678272,0.19897 -14.497275,0.86559 -19.207431,0.77362 l -0.117948,-25.21999 c 12.46678,-0.27203 25.074515,-1.47421 37.111275,-4.85952 20.31702,-5.63373 39.35969,-15.8743 55.12269,-29.89981 10.20142,-9.1533 19.65218,-20.56222 26.774,-32.27978 l 5.24832,2.79687 16.58118,8.80597 c -3.06517,5.28553 -6.42654,10.39973 -10.04875,15.32021 7.34098,9.77678 15.3718,19.05708 22.78415,28.7877 -8.24411,9.91365 -17.42494,19.04645 -27.32456,27.30756 -4.06624,-2.56714 -7.80565,-6.14381 -11.75599,-9.08676 -5.67648,-4.5648 -11.38104,-9.09466 -17.0817,-13.62939 -10.07204,7.42601 -20.97802,13.76375 -32.4697,18.7204 1.51332,12.13362 3.60821,24.21989 5.31562,36.33915 -8.66041,3.26802 -17.64255,5.98496 -26.72126,8.02092 -3.60577,0.86808 -7.27988,1.42373 -10.91432,2.16073 l -0.13855,-0.37135 z"
       id="path64" /><path
       style="fill:#fd8b00"
       d="m 213.42672,218.91978 c 0,0 -12.75013,-6.54567 -18.97942,-10.07222 13.03377,-22.03914 19.82987,-47.78658 18.94694,-73.40303 -0.26529,-17.70518 -4.56532,-35.21666 -11.53926,-51.446593 -1.89606,-4.074895 -4.03526,-8.038816 -6.02413,-12.07135 6.9579,-4.639103 14.2186,-8.898774 21.31358,-13.358731 2.76615,5.215008 5.62061,10.386848 7.88972,15.844816 5.95672,-0.455494 11.86335,-1.780886 17.8131,-2.500927 6.16989,-0.968589 12.36218,-1.796012 18.5258,-2.800559 4.6041,12.106414 7.88318,24.668935 10.13593,37.415614 -4.13907,2.25142 -8.89976,3.54872 -13.2829,5.42553 -6.88835,2.73744 -13.93865,5.24952 -20.68674,8.22861 -0.23046,3.01993 0.64933,6.44214 0.66011,9.63548 0.0551,7.27531 0.32753,14.59653 -0.26528,21.85458 0.0672,1.98941 -0.90475,4.59555 -0.29723,6.19363 11.27263,4.47176 22.62242,8.83353 33.88113,13.31275 -2.17624,12.84069 -5.59673,25.45485 -10.13438,37.65544 -12.01246,-1.86903 -24.04018,-3.63873 -36.05082,-5.52068 -2.70693,5.02145 -5.95936,12.22401 -8.8821,17.18021 z"
       id="path63" /><path
       style="fill:#632271"
       d="m -53.391216,64.351706 c -3.573587,-2.370958 -7.384105,-4.455643 -10.810258,-7.004738 3.068621,-5.259879 6.646614,-10.359804 9.999549,-15.327473 -5.817831,-7.943245 -12.381898,-15.623208 -18.54348,-23.419228 -0.979754,-1.938053 -4.124159,-3.636648 -3.687623,-5.764462 8.105097,-9.7600996 17.125345,-18.799621 26.954705,-26.824397 L -21.395442,8.4814257 C -11.541065,-0.16860499 -0.09568072,-6.8361191 11.681926,-9.9922003 10.229137,-22.043388 8.1592976,-34.041043 6.3669256,-46.055321 c 4.7635874,-2.238824 10.0652994,-3.662308 15.1400314,-5.255108 7.339049,-2.13734 14.844221,-3.782683 22.382245,-4.981143 4.286584,11.383274 8.428375,22.278752 12.859312,33.606309 6.861634,-0.581961 14.113952,-0.686943 21.006602,-0.553183 L 77.606327,2.1813446 C 43.30757,1.6212799 9.1036496,14.756502 -16.214907,37.861374 -26.797171,47.374643 -35.736285,58.751682 -42.89954,70.96521 c -3.512563,-2.160271 -6.992949,-4.417001 -10.491676,-6.613504 z"
       id="path62" /><path
       style="fill:#e20202"
       d="M 195.80645,71.949082 C 179.20301,43.919256 150.54311,19.399774 119.5462,9.3144624 106.04265,4.7181651 91.858352,2.5126128 77.622076,2.1420788 l 0.152167,-25.4286278 c 5.697057,0.0478 11.516401,0.315359 17.179578,0.928623 4.371209,-11.404474 8.875139,-22.770165 13.271979,-34.156284 12.84055,2.164373 25.48402,5.466479 37.65723,10.10411 -1.72975,12.123102 -3.85731,24.216459 -5.34954,36.356408 11.46236,4.9373947 22.31763,11.2622165 32.3713,18.6547832 9.72821,-7.3488717 19.07037,-15.2328186 28.6709,-22.7615182 10.04629,8.0331323 18.97201,17.3929298 27.32864,27.147903 -0.59747,2.445322 -3.22074,4.150483 -4.55156,6.366355 -5.9518,7.558977 -12.14611,15.024192 -17.93803,22.647421 3.70753,5.283089 7.47092,10.997619 10.67664,16.652777 z"
       id="path61" /><path
       style="fill:#1f3981"
       d="m -63.907152,221.21863 c -3.586983,-5.90214 -6.951952,-13.68614 -9.341905,-17.87556 -11.944498,1.84887 -23.920217,3.49707 -35.851313,5.43046 -2.00833,-4.18893 -3.06792,-8.9815 -4.7105,-13.40314 -2.36076,-7.95952 -4.23419,-16.08873 -5.52236,-24.29368 11.27442,-4.46648 22.714464,-8.66369 33.852041,-13.3826 0.529529,-1.58685 -0.426538,-3.89288 -0.316803,-5.76867 -0.635087,-7.60657 -0.323376,-15.27768 -0.267644,-22.90125 0.259255,-2.96452 0.518883,-5.929 0.777758,-8.89354 -11.317042,-4.45198 -22.630212,-8.93732 -33.998962,-13.23603 1.36419,-9.895768 3.92484,-19.663515 7.00125,-29.174582 0.95932,-2.886253 1.91865,-5.772502 2.87798,-8.658752 12.066373,1.779017 24.102455,3.757154 36.183856,5.431557 2.542304,-4.466199 4.138475,-8.570885 9.007287,-17.119817 l 21.418114,13.660578 c -9.969288,17.592243 -16.016003,37.341246 -17.649418,57.495486 -0.356848,9.6281 -0.560238,19.35042 0.935753,28.90832 2.124312,15.93956 7.254625,31.43296 14.785899,45.62671 0.951634,2.10196 2.274724,4.00101 3.426528,5.99363 z"
       id="path60" /><path
       style="fill:#007e25"
       d="m 41.844427,334.0467 c -11.989707,-2.06859 -23.788114,-5.39243 -35.1613289,-9.59879 -1.0601531,-1.65895 0.5391874,-4.36235 0.4574742,-6.43346 1.4141953,-10.00364 3.2436737,-20.12162 4.3947557,-30.05322 -11.3484645,-4.94344 -22.163971,-11.14357 -32.085865,-18.55062 -2.739219,1.03956 -4.895369,3.74041 -7.406904,5.42869 -7.263144,5.6752 -14.274408,11.70805 -21.696027,17.15824 -9.973312,-8.16518 -19.01271,-17.41448 -27.300025,-27.27419 2.452737,-4.01272 6.002251,-7.64093 8.875588,-11.5062 4.622622,-5.76625 9.212733,-11.55866 13.858474,-17.3063 -3.521993,-4.72987 -6.705728,-9.69448 -9.727661,-14.75542 7.526688,-4.02497 15.053374,-8.04994 22.580058,-12.07491 11.013467,18.29187 26.229498,34.02064 44.2877659,45.43751 21.5991971,13.71153 47.0796961,21.16736 72.6580691,21.37487 0.04853,8.42257 0.09707,16.84513 0.1456,25.2677 -6.186965,0.20301 -12.358976,-0.3319 -18.517896,-0.87094 -4.415164,11.32031 -8.781734,22.67332 -13.330353,33.94384 -0.679553,-0.0456 -1.364835,-0.0293 -2.031725,-0.1868 z"
       id="path59" /><path
       style="fill:#000000"
       d="M -283.59308,138.97092 V -75.076988 H 435.54443 V 353.01884 h -719.13751 z m 407.59063,192.09039 c 6.09652,-3.13256 19.88124,-2.30842 21.58137,-8.93448 -1.65061,-11.39892 -3.51322,-22.76802 -5.11018,-34.17366 11.74986,-4.51613 22.56568,-12.40169 33.02443,-18.33834 9.42115,7.40577 18.66299,15.06896 28.18246,22.33062 9.66862,-8.32359 20.64175,-17.62706 27.12588,-27.9589 -7.41373,-9.42462 -15.26306,-18.6835 -22.38625,-28.22806 7.54225,-10.03827 13.56456,-21.17457 18.91771,-32.44378 11.88422,1.49305 24.87371,4.5124 36.20383,5.0491 4.45966,-12.02294 8.10795,-24.73729 9.83377,-37.29151 -11.35348,-4.45801 -22.72169,-8.89168 -34.07017,-13.32999 1.85541,-12.46209 0.70191,-25.65901 0.46813,-37.79189 11.23142,-4.45374 22.55155,-8.76084 33.76708,-13.2032 -2.5144,-12.572829 -5.10752,-26.938525 -10.85481,-37.513494 -11.89626,1.64607 -23.76087,3.778388 -35.67307,5.178806 -4.44559,-11.685316 -12.60421,-22.697095 -18.22926,-32.940624 7.43368,-9.404037 14.9276,-18.760113 22.41126,-28.124295 -8.50893,-9.5390283 -17.84222,-20.9593991 -28.17971,-27.092357 -9.39104,7.4076966 -18.58008,15.1013835 -28.0925,22.3382675 -9.85374,-7.72794005 -21.94015,-13.4773826 -32.37833,-19.2104845 1.62734,-11.943619 3.64942,-23.850804 5.34453,-35.793195 -12.16747,-3.703817 -25.95922,-7.122527 -37.57348,-10.24646 -4.43459,11.114451 -9.036674,23.141621 -13.416164,34.283509 -12.517972,-1.781022 -25.646053,-0.571431 -37.90122,-0.18414 -4.414915,-11.241371 -8.761508,-22.556331 -13.222872,-33.749782 -12.726218,2.192945 -25.54727,5.244237 -37.4023764,10.251653 1.8131986,12.012225 3.8478214,24.013251 5.3150004,36.0631207 C -0.03464865,-5.5957438 -14.023243,3.0805308 -21.5226,8.3438678 -30.978393,1.2904684 -40.438287,-7.7760352 -49.919913,-13.642742 c -9.666161,8.2379416 -19.47022,17.1311866 -26.768313,27.343202 7.406414,9.553241 15.709182,18.795727 22.489583,28.601924 -7.560775,9.954813 -13.689943,20.965234 -19.024418,32.190404 -12.081084,-1.676566 -24.11807,-3.648688 -36.183859,-5.431557 -3.89455,12.218638 -8.98735,25.698026 -9.4162,37.976719 10.86493,4.83619 24.347754,8.09894 33.446865,14.11227 -1.683108,12.08793 -0.242424,25.31673 -0.440086,36.81948 -11.161916,4.39497 -22.331979,8.76905 -33.516199,13.10696 2.06304,12.85426 5.37535,25.70238 10.23286,37.69682 11.976505,-1.47162 24.781147,-4.62463 36.306121,-4.8474 5.061787,11.26313 11.221002,22.05181 18.584103,31.97329 -7.514404,9.61863 -15.668232,19.04053 -22.743343,28.82383 8.459363,9.54314 17.573246,20.44859 27.871367,26.92223 9.6587,-7.12496 18.72236,-15.65111 28.531589,-22.23497 9.943996,7.47095 20.87581561,13.5992 32.201565,18.66622 -1.142914,12.05317 -5.0680032,25.255 -4.6558885,36.613 11.9649985,3.613 25.2944475,9.05538 37.1656225,8.91894 4.388154,-11.08898 8.733148,-22.2025 13.044995,-33.31722 12.523046,1.27319 25.166754,1.29587 37.687629,0.0116 4.483374,11.35643 8.88689,22.74678 13.31715,34.12228 5.29273,-0.99017 10.58629,-1.94737 15.78632,-3.36393 z M 70.729812,275.70859 C 8.1530386,274.28654 -48.746597,224.5611 -58.669846,162.78342 -70.281471,103.04986 -36.416962,38.359017 19.619423,14.34966 78.513827,-13.622905 155.29161,8.3715007 190.38025,63.335962 226.22455,114.68261 219.39432,190.12778 174.9762,234.26145 148.18102,262.06979 109.29802,277.6192 70.729812,275.70859 Z m 27.221125,-93.3864 47.423803,25.99717 c 0,0 -18.1631,-31.79742 -25.74281,-47.85973 25.45049,-7.68591 77.09625,-22.16792 77.09625,-22.16792 L 119.63193,116.42388 145.29077,68.45592 97.502295,94.284052 75.446511,17.262593 53.18902,94.515618 5.6158476,68.790197 31.57606,116.22007 -45.888037,138.90412 31.525677,160.82489 5.869498,208.55672 53.39072,182.59984 75.725679,260.38697 Z m -41.157564,-24.82656 18.620802,-18.92157 -0.50058,81.65749 z m -32.411446,32.08146 15.862297,-27.53455 9.196817,3.01845 2.371959,9.47011 z m 74.82081,-15.26348 2.367373,-9.53318 9.18013,-2.78876 16.02542,27.7799 z M 158.59726,138.40346 94.825128,157.79379 75.422269,138.56354 Z m -164.4588353,-0.1309 62.2311433,-18.66923 19.043861,18.97704 z m 81.2906183,0.30912 0.550372,-81.92971 18.477973,62.6075 z M 23.729148,87.588774 51.764287,102.419 l -1.368748,10.34472 -11.359601,2.13012 c 0.107646,-0.003 -15.30679,-27.305066 -15.30679,-27.305066 z M 99.12672,101.99611 126.77581,87.36062 c 0,0 -9.92164,18.8215 -15.47826,27.52512 l -9.6241,-2.94433 z"
       id="path47" /></g></svg>
