<?xml version="1.0" encoding="UTF-8" standalone="no"?>
<!-- Created with Inkscape. All glory to @tetraspace, @dawnlightmelody @kalamandrens. converted to svg by @girllich. code cleaned by @ilzolende -->

<svg width="424" height="424" version="1.1" id="svg1" xml:space="preserve" xmlns="http://www.w3.org/2000/svg" xmlns:svg="http://www.w3.org/2000/svg">
	<defs>
		<clipPath id="compass-clip">
			<path id="compass-star" transform="matrix(2.5,0,0,2.5,87,86.75)" d="M29.1,29.2l6.4,11.6l4.3-0.8l0.8-4.3L29.1,29.2z M40.7,64.5l-0.8-4.3l-4.3-0.8L29.2,71L40.7,64.5z M70.9,70.9l-6.4-11.6l-4.3,0.8l-0.8,4.3L70.9,70.9z M64.4,40.8l6.4-11.6l-11.6,6.4l0.8,4.3L64.4,40.8z M67.4,58.8l10.8,19.4L58.8,67.4L50,98.8l-8.8-31.4L21.9,78.2l10.8-19.4L1.2,50.1l31.4-8.8L21.9,21.9l19.4,10.8L50,1.3l8.8,31.4l19.4-10.8L67.4,41.3L98.8,50L67.4,58.8zM57.7,57.8L83.5,50L50,50.1l7.7-7.7L50,16.6v33.5l-7.7-7.7l-25.8,7.7H50l-7.7,7.7L50,83.5V50.1L57.7,57.8z"/>
		</clipPath>
		<mask id="gear-mask">
			<path id="gear-outer" d="M260 404.0613c6.0965-3.1326 19.8812-2.3084 21.5814-8.9345-1.6506-11.3989-3.5132-22.768-5.1102-34.1737 11.7499-4.5161 22.5657-12.4017 33.0244-18.3383 9.4212 7.4058 18.663 15.069 28.1825 22.3306 9.6686-8.3236 20.6417-17.6271 27.1259-27.9589-7.4137-9.4246-15.2631-18.6835-22.3863-28.2281 7.5423-10.0383 13.5646-21.1746 18.9177-32.4438 11.8842 1.493 24.8737 4.5124 36.2038 5.0491 4.4597-12.0229 8.108-24.7373 9.8338-37.2915-11.3535-4.458-22.7217-8.8917-34.0702-13.33 1.8554-12.4621.7019-25.659.4681-37.7919 11.2314-4.4537 22.5515-8.7608 33.7671-13.2032-2.5144-12.5728-5.1075-26.9385-10.8548-37.5135-11.8963 1.6461-23.7609 3.7784-35.6731 5.1788-4.4456-11.6853-12.6042-22.6971-18.2293-32.9406 7.4337-9.404 14.9276-18.7601 22.4113-28.1243-8.5089-9.539-17.8422-20.9594-28.1797-27.0924-9.391 7.4077-18.5801 15.1014-28.0925 22.3383-9.8537-7.7279-21.9401-13.4774-32.3783-19.2105 1.6273-11.9436 3.6494-23.8508 5.3445-35.7932-12.1675-3.7038-25.9592-7.1225-37.5735-10.2465-4.4346 11.1145-9.0367 23.1416-13.4162 34.2835-12.518-1.781-25.6461-.5714-37.9012-.1841-4.4149-11.2414-8.7615-22.5563-13.2229-33.7498-12.7262 2.1929-25.5473 5.2442-37.4024 10.2517 1.8132 12.0122 3.8478 24.0133 5.315 36.0631-11.717 4.3967-25.7056 13.0729-33.205 18.3363-9.4558-7.0534-18.9157-16.1199-28.3973-21.9866-9.6662 8.2379-19.4702 17.1312-26.7683 27.3432 7.4064 9.5532 15.7092 18.7957 22.4896 28.6019-7.5608 9.9548-13.6899 20.9652-19.0244 32.1904-12.0811-1.6766-24.1181-3.6487-36.1839-5.4316-3.8946 12.2186-8.9873 25.698-9.4162 37.9767 10.8649 4.8362 24.3478 8.0989 33.4469 14.1123-1.6831 12.0879-.2424 25.3167-.4401 36.8195-11.1619 4.395-22.332 8.7691-33.5162 13.107 2.063 12.8543 5.3754 25.7024 10.2329 37.6968 11.9765-1.4716 24.7811-4.6246 36.3061-4.8474 5.0618 11.2631 11.221 22.0518 18.5841 31.9733-7.5144 9.6186-15.6682 19.0405-22.7433 28.8238 8.4594 9.5431 17.5732 20.4486 27.8714 26.9222 9.6587-7.125 18.7224-15.6511 28.5316-22.235 9.944 7.471 20.8758 13.5992 32.2016 18.6662-1.1429 12.0532-5.068 25.255-4.6559 36.613 11.965 3.613 25.2944 9.0554 37.1656 8.9189 4.3882-11.089 8.7331-22.2025 13.045-33.3172 12.523 1.2732 25.1668 1.2959 37.6876.0116 4.4834 11.3564 8.8869 22.7468 13.3171 34.1223 5.2927-.9902 10.5863-1.9474 15.7863-3.3639z" fill="#fff"/>
			<circle id="gear-inner" cx="212" cy="212" r="137" fill="#000"/>
		</mask>
	</defs>
	<rect id="bkg" width="424" height="424"/>
	<g id="compass-trans" clip-path="url(#compass-clip)">
		<rect fill="#5BCEFA" id="trans-blue" width="50" height="260" x="187" y="82"/>
		<rect fill="#F5A9B8" id="trans-pink" width="144" height="144" x="140" y="140"/>
		<rect fill="#FFF" id="trans-white" width="260" height="50" x="82" y="187" />
	</g>
	<g id="gear" mask="url(#gear-mask)">
		<path id="wedge-2" d="M212,212 433.7025,74 433.7025,350 Z" fill="#FF8D00" />
		<path id="wedge-4" d="M212,212 222,468 -19.7025,340 Z" fill="#028121" />
		<path id="wedge-6" d="M212,212 -19.7025,84 222,-44 Z" fill="#770088" />
		<path id="wedge-1" d="M212,212 212,-44 433.7025,84 Z" fill="#E50000" />
		<path id="wedge-3" d="M212,212 433.7025,340 212,468 Z" fill="#FE0" />
		<path id="wedge-5" d="M212,212 -9.7025,340 -9.7025,84 Z" fill="#004CFF" />
	</g>
</svg>
