<?xml version="1.0" encoding="UTF-8" standalone="no"?>
<svg width="200" height="200" viewBox="-100 -100 200 200" version="1.1" id="svg1" xml:space="preserve" xmlns="http://www.w3.org/2000/svg" xmlns:svg="http://www.w3.org/2000/svg">
	<defs>
		<clipPath id="compass-clip">
			<path id="compass-star" transform="translate(-50,-50)" d="M29.1,29.2l6.4,11.6l4.3-0.8l0.8-4.3L29.1,29.2z M40.7,64.5l-0.8-4.3l-4.3-0.8L29.2,71L40.7,64.5z M70.9,70.9l-6.4-11.6l-4.3,0.8l-0.8,4.3L70.9,70.9z M64.4,40.8l6.4-11.6l-11.6,6.4l0.8,4.3L64.4,40.8z M67.4,58.8l10.8,19.4L58.8,67.4L50,98.8l-8.8-31.4L21.9,78.2l10.8-19.4L1.2,50.1l31.4-8.8L21.9,21.9l19.4,10.8L50,1.3l8.8,31.4l19.4-10.8L67.4,41.3L98.8,50L67.4,58.8zM57.7,57.8L83.5,50L50,50.1l7.7-7.7L50,16.6v33.5l-7.7-7.7l-25.8,7.7H50l-7.7,7.7L50,83.5V50.1L57.7,57.8z"/>
		</clipPath>
		<mask id="gear-mask">
			<path id="gear-outer" transform="rotate(11.25) scale(1.6)" d="m 44.279,-5.028 3.273,-0.372 3.132,0.408 6.573,2.873 0,4.238 -6.573,2.873 -3.132,0.408 -3.273,-0.372 -1.446,7.271 3.166,0.909 2.738,1.576 4.972,5.17 -1.622,3.914 -7.171,0.14 -3.05,-0.821 -2.882,-1.597 -4.119,6.164 2.578,2.052 1.926,2.503 2.616,6.68 -2.996,2.996 -6.68,-2.616 -2.503,-1.926 -2.052,-2.578 -6.164,4.119 1.597,2.882 0.821,3.05 -0.14,7.171 -3.914,1.622 -5.17,-4.972 -1.576,-2.738 -0.909,-3.166 -7.271,1.446 0.372,3.273 -0.408,3.132 -2.873,6.573 -4.238,0 -2.873,-6.573 -0.408,-3.132 0.372,-3.273 -7.271,-1.446 -0.909,3.166 -1.576,2.738 -5.17,4.972 -3.914,-1.622 -0.14,-7.171 0.821,-3.05 1.597,-2.882 -6.164,-4.119 -2.052,2.578 -2.503,1.926 -6.68,2.616 -2.996,-2.996 2.616,-6.68 1.926,-2.503 2.578,-2.052 -4.119,-6.164 -2.882,1.597 -3.05,0.821 -7.171,-0.14 -1.622,-3.914 4.972,-5.17 2.738,-1.576 3.166,-0.909 -1.446,-7.271 -3.273,0.372 -3.132,-0.408 -6.573,-2.873 0,-4.238 6.573,-2.873 3.132,-0.408 3.273,0.372 1.446,-7.271 -3.166,-0.909 -2.738,-1.576 -4.972,-5.17 1.622,-3.914 7.171,-0.14 3.05,0.821 2.882,1.597 4.119,-6.164 -2.578,-2.052 -1.926,-2.503 -2.616,-6.68 2.996,-2.996 6.68,2.616 2.503,1.926 2.052,2.578 6.164,-4.119 -1.597,-2.882 -0.821,-3.05 0.14,-7.171 3.914,-1.622 5.17,4.972 1.576,2.738 0.909,3.166 7.271,-1.446 -0.372,-3.273 0.408,-3.132 2.873,-6.573 4.238,0 2.873,6.573 0.408,3.132 -0.372,3.273 7.271,1.446 0.909,-3.166 1.576,-2.738 5.17,-4.972 3.914,1.622 0.14,7.171 -0.821,3.05 -1.597,2.882 6.164,4.119 2.052,-2.578 2.503,-1.926 6.68,-2.616 2.996,2.996 -2.616,6.68 -1.926,2.503 -2.578,2.052 4.119,6.164 2.882,-1.597 3.05,-0.821 7.171,0.14 1.622,3.914 -4.972,5.17 -2.738,1.576 -3.166,0.909 z" fill="#fff"/>
			<circle id="gear-inner" cx="0" cy="0" r="56" fill="#000"/>
		</mask>
	</defs>
	<rect id="bkg" x="-100" y="-100" width="200" height="200"/>
	<g id="gear" mask="url(#gear-mask)">
		<path id="wedge-1" d="M0,0 -250,0 -250,-250 0,-250 Z" fill="#F6C" />
		<path id="wedge-3" d="M0,0 0,-250 250,-250, 250,0 Z" fill="#F90" />
		<path id="wedge-5" d="M0,0 250,0 250,250 0,250 Z" fill="#0A0" />
		<path id="wedge-7" d="M0,0 0,250 -250,250 -250,0 Z" fill="#00F" />
		<g id="front-wedges" transform="rotate(22.5)">
			<path id="wedge-2" d="M0,0 0,-250 -250,-250 Z" fill="#F00" />
			<path id="wedge-4" d="M0,0 250,0 250,-250 Z" fill="#FF0" />
			<path id="wedge-6" d="M0,0 0,250 250,250 Z" fill="#0DF" />
			<path id="wedge-8" d="M0,0 -250,0 -250,250 Z" fill="#90F" />
		</g>
	</g>
	<g id="compass-trans" clip-path="url(#compass-clip)">
		<rect fill="#5BCEFA" id="trans-blue" width="20" height="100" x="-10" y="-50"/>
		<rect fill="#F5A9B8" id="trans-pink" width="60" height="57" x="-30" y="-28.5"/>
		<rect fill="#FFF" id="trans-white" width="100" height="20" x="-50" y="-10" />
	</g>
</svg>
